<?xml version="1.0" encoding="iso-8859-1"?>
<!-- Generator: Adobe Illustrator 18.1.1, SVG Export Plug-In . SVG Version: 6.00 Build 0)  -->
<svg version="1.1" id="Capa_1" xmlns="http://www.w3.org/2000/svg" xmlns:xlink="http://www.w3.org/1999/xlink" x="0px" y="0px"
	 viewBox="0 0 53.568 53.568" style="enable-background:new 0 0 53.568 53.568;" xml:space="preserve">
<g>
	<path style="fill:#010002;" d="M52.808,23.91l-3.933-8.892l3.33-2.427c0.446-0.325,0.545-0.951,0.22-1.397
		c-0.326-0.445-0.951-0.544-1.397-0.22l-3.235,2.357c-0.646-0.588-1.506-0.974-2.344-0.996L19.223,8.677l-0.138-0.01
		c-1.931,0-3.502,1.57-3.502,3.501v1.175c0,1.902,1.524,3.455,3.416,3.501l19.661,3.142l-3.499,2.549h-6.378c-0.553,0-1,0.447-1,1
		v1.036c0,0.089,0.029,0.167,0.05,0.249h-5.428L2.523,10.963c-0.453-0.314-1.076-0.205-1.392,0.249
		c-0.316,0.452-0.205,1.076,0.249,1.392l17.528,12.216h-2.069C7.554,24.819,0,32.374,0,41.659c0,0.4,0.014,0.798,0.041,1.188
		c0.078,1.146,1.299,2.047,2.782,2.049h4.689c0.008,0,0.015,0.006,0.023,0.006c0.011,0,0.022-0.006,0.034-0.006l40.462,0.006
		c0,0,0.001,0,0.002,0c0,0,0.001,0,0.002,0h2.869c1.469,0,2.664-1.196,2.664-2.666V27.507C53.568,26.451,53.234,24.872,52.808,23.91
		z M19.242,14.857l-0.158-0.013c-0.828,0-1.502-0.674-1.502-1.502v-1.175c0-0.808,0.641-1.468,1.441-1.5l26.209,3.657l0.139,0.01
		c0.227,0,0.485,0.097,0.725,0.233l-5.155,3.756L19.242,14.857z M41.446,20.43l0.433,0.069l0.158,0.013
		c0.502,0,1.148,0.444,1.326,0.913l1.215,3.191c0.039,0.104,0.038,0.162,0.045,0.171c-0.02,0.01-0.074,0.031-0.186,0.031h-4.752
		c0.021-0.082,0.051-0.16,0.051-0.249v-1.035c0-0.553-0.447-1-1-1h-0.178L41.446,20.43z M29.279,26.819l-1.958,1.427l-2.047-1.427
		H29.279z M7.215,42.893H2.824c-0.445,0-0.751-0.188-0.787-0.188c-0.026-0.346-0.038-0.695-0.038-1.048
		c0-8.183,6.657-14.839,14.839-14.839h4.939l3.834,2.672L7.215,42.893z M10.612,42.893l16.736-12.192l17.501,12.197L10.612,42.893z
		 M51.568,42.233c0,0.367-0.299,0.666-0.664,0.666v1l-0.004-1h-2.553L29.058,29.456l3.617-2.637h11.762
		c0.772,0,1.438-0.324,1.828-0.889c0.391-0.564,0.455-1.303,0.182-2.024l-1.215-3.192c-0.295-0.772-0.928-1.426-1.684-1.815
		l3.672-2.675l3.758,8.496c0.313,0.708,0.59,2.011,0.59,2.787V42.233z"/>
</g>
<g>
</g>
<g>
</g>
<g>
</g>
<g>
</g>
<g>
</g>
<g>
</g>
<g>
</g>
<g>
</g>
<g>
</g>
<g>
</g>
<g>
</g>
<g>
</g>
<g>
</g>
<g>
</g>
<g>
</g>
</svg>
